<?xml version="1.0" encoding="UTF-8" standalone="no"?>
<svg width="825px" height="227px" viewBox="0 0 825 227" version="1.1" xmlns="http://www.w3.org/2000/svg" xmlns:xlink="http://www.w3.org/1999/xlink" xmlns:sketch="http://www.bohemiancoding.com/sketch/ns">
    <!-- Generator: Sketch 3.2.2 (9983) - http://www.bohemiancoding.com/sketch -->
    <title>Landscape</title>
    <desc>Created with Sketch.</desc>
    <defs></defs>
    <g id="Page-1" stroke="none" stroke-width="1" fill="none" fill-rule="evenodd" sketch:type="MSPage">
        <g id="Landscape" sketch:type="MSArtboardGroup" fill="#2C2C2B">
            <path d="M101.056,163.728 C131.728,163.728 152.608,139.392 152.608,111.6 L152.608,111.312 C152.608,83.52 132.016,59.472 101.344,59.472 C70.672,59.472 49.792,83.808 49.792,111.6 L49.792,111.888 C49.792,139.68 70.384,163.728 101.056,163.728 L101.056,163.728 Z M101.344,153.216 C78.304,153.216 61.6,134.496 61.6,111.6 L61.6,111.312 C61.6,88.416 78.016,69.984 101.056,69.984 C124.096,69.984 140.8,88.704 140.8,111.6 L140.8,111.888 C140.8,134.784 124.384,153.216 101.344,153.216 L101.344,153.216 Z M176.656,157.104 C176.656,160.272 179.104,162.72 182.128,162.72 C185.296,162.72 187.744,160.272 187.744,157.104 L187.744,81.936 L187.744,66.3840002 C187.744,63.5307618 186.293945,60.768 182.272,60.768 C178.250055,60.768 176.656,63.36 176.656,66.384 L176.656,157.104 Z M259.656,157.104 C259.656,160.272 262.104,162.72 265.128,162.72 C268.296,162.72 270.744,160.272 270.744,157.104 L270.744,81.936 L270.744,66.3840002 C270.744,63.5307618 269.293945,60.768 265.272,60.768 C261.250055,60.768 259.656,63.36 259.656,66.384 L259.656,157.104 Z M218.656,157.104 C218.656,160.272 221.104,162.72 224.128,162.72 C227.296,162.72 229.744,160.272 229.744,157.104 L229.744,99.3840002 C229.744,96.5307618 228.293945,93.768 224.272,93.768 C220.250055,93.768 218.656,96.36 218.656,99.384 L218.656,157.104 Z M336.208,163.44 C356.224,163.44 370.624,152.208 370.624,134.928 L370.624,134.64 C370.624,119.232 360.256,111.024 337.792,106.128 C315.616,101.376 310.432,96.048 310.432,86.544 L310.432,86.256 C310.432,77.184 318.784,69.984 331.888,69.984 C341.248,69.984 349.456,72.576 357.952,78.768 C358.96,79.488 359.968,79.776 361.264,79.776 C364.288,79.776 366.736,77.328 366.736,74.304 C366.736,72.144 365.44,70.56 364.288,69.696 C355.072,63.072 345.424,59.76 332.176,59.76 C313.024,59.76 299.056,71.424 299.056,87.264 L299.056,87.552 C299.056,104.112 309.712,111.6 332.896,116.64 C354.064,121.104 359.104,126.432 359.104,135.792 L359.104,136.08 C359.104,146.016 350.176,153.216 336.64,153.216 C323.824,153.216 314.32,149.328 304.816,141.264 C304.096,140.544 302.8,139.968 301.36,139.968 C298.336,139.968 295.888,142.416 295.888,145.584 C295.888,147.456 296.752,149.04 298.048,149.904 C309.28,158.832 321.52,163.44 336.208,163.44 L336.208,163.44 Z M399.424,162 L462.784,162 C465.664,162 467.968,159.696 467.968,156.816 C467.968,153.936 465.664,151.632 462.784,151.632 L405.184,151.632 L405.184,116.352 L455.584,116.352 C458.464,116.352 460.768,114.048 460.768,111.168 C460.768,108.432 458.464,105.984 455.584,105.984 L405.184,105.984 L405.184,71.568 L462.064,71.568 C464.944,71.568 467.248,69.264 467.248,66.384 C467.248,63.504 464.944,61.2 462.064,61.2 L399.424,61.2 C396.4,61.2 393.808,63.792 393.808,66.96 L393.808,156.24 C393.808,159.408 396.4,162 399.424,162 L399.424,162 Z M490.288,157.104 C490.288,160.128 492.736,162.72 495.76,162.72 C498.928,162.72 501.376,160.128 501.376,157.104 L501.376,79.056 L563.872,158.976 C565.6,160.992 567.328,162.432 569.776,162.432 L570.352,162.432 C573.376,162.432 575.536,160.128 575.536,157.104 L575.536,66.096 C575.536,63.072 573.088,60.48 570.064,60.48 C566.896,60.48 564.448,63.072 564.448,66.096 L564.448,142.128 L503.248,64.08 C501.664,62.064 500.08,60.768 497.488,60.768 L495.904,60.768 C492.88,60.768 490.288,63.36 490.288,66.384 L490.288,157.104 Z M638.608,163.44 C658.624,163.44 673.024,152.208 673.024,134.928 L673.024,134.64 C673.024,119.232 662.656,111.024 640.192,106.128 C618.016,101.376 612.832,96.048 612.832,86.544 L612.832,86.256 C612.832,77.184 621.184,69.984 634.288,69.984 C643.648,69.984 651.856,72.576 660.352,78.768 C661.36,79.488 662.368,79.776 663.664,79.776 C666.688,79.776 669.136,77.328 669.136,74.304 C669.136,72.144 667.84,70.56 666.688,69.696 C657.472,63.072 647.824,59.76 634.576,59.76 C615.424,59.76 601.456,71.424 601.456,87.264 L601.456,87.552 C601.456,104.112 612.112,111.6 635.296,116.64 C656.464,121.104 661.504,126.432 661.504,135.792 L661.504,136.08 C661.504,146.016 652.576,153.216 639.04,153.216 C626.224,153.216 616.72,149.328 607.216,141.264 C606.496,140.544 605.2,139.968 603.76,139.968 C600.736,139.968 598.288,142.416 598.288,145.584 C598.288,147.456 599.152,149.04 600.448,149.904 C611.68,158.832 623.92,163.44 638.608,163.44 L638.608,163.44 Z M701.824,162 L765.184,162 C768.064,162 770.368,159.696 770.368,156.816 C770.368,153.936 768.064,151.632 765.184,151.632 L707.584,151.632 L707.584,116.352 L757.984,116.352 C760.864,116.352 763.168,114.048 763.168,111.168 C763.168,108.432 760.864,105.984 757.984,105.984 L707.584,105.984 L707.584,71.568 L764.464,71.568 C767.344,71.568 769.648,69.264 769.648,66.384 C769.648,63.504 767.344,61.2 764.464,61.2 L701.824,61.2 C698.8,61.2 696.208,63.792 696.208,66.96 L696.208,156.24 C696.208,159.408 698.8,162 701.824,162 L701.824,162 Z" id="OMSENSE" sketch:type="MSShapeGroup"></path>
        </g>
    </g>
</svg>